<svg xmlns="http://www.w3.org/2000/svg" viewBox="0 0 150 150">
  <linearGradient id="tr_warm" x1="52" x2="52" y1="14" y2="76" gradientUnits="userSpaceOnUse">
    <stop stop-color="#F9AC33" offset="0"/>
    <stop stop-color="#F0603C" offset="1"/>
  </linearGradient>
  <path d="M30 14h44a16 16 0 0 1 16 16v16a16 16 0 0 1-16 16H48l-18 14 5-14h-5a16 16 0 0 1-16-16V30a16 16 0 0 1 16-16z" fill="url(#tr_warm)"/>
  <g stroke="#fff" stroke-width="7" stroke-linecap="round" stroke-linejoin="round" fill="none">
    <path d="M42 53l10-27 10 27"/>
    <path d="M46 44h12"/>
  </g>
  <linearGradient id="tr_cool" x1="97" x2="97" y1="52" y2="126" gradientUnits="userSpaceOnUse">
    <stop stop-color="#2BB3A3" offset="0"/>
    <stop stop-color="#1D3F6E" offset="1"/>
  </linearGradient>
  <path d="M76 52h42a18 18 0 0 1 18 18v22a18 18 0 0 1-18 18h-2l6 16-22-16H76a18 18 0 0 1-18-18V70a18 18 0 0 1 18-18z" fill="url(#tr_cool)"/>
  <path d="M76 58h42a12 12 0 0 1 12 12v4a12 12 0 0 0-12-12H76a12 12 0 0 0-12 12v-4a12 12 0 0 1 12-12z" fill="#fff" opacity=".25"/>
  <g stroke="#fff" stroke-width="7" stroke-linecap="round" stroke-linejoin="round" fill="none">
    <path d="M97 59v4"/>
    <path d="M80 73h34"/>
    <path d="M104 76L85 102"/>
    <path d="M90 76l19 26"/>
  </g>
</svg>
